<svg width="199" height="199" viewBox="0 0 199 199" fill="none" xmlns="http://www.w3.org/2000/svg">
<rect x="0.645944" y="0.489694" width="197.836" height="197.836" fill="white" stroke="#ECECEC" stroke-width="0.979388"/>
<ellipse cx="122.067" cy="73.6675" rx="11.9831" ry="10.6992" fill="white"/>
<path fill-rule="evenodd" clip-rule="evenodd" d="M143.373 120.09C143.373 120.09 133.107 125.813 122.081 125.813C103.07 125.813 87.1006 111.698 87.1006 80.7974C87.1006 66.301 92.8039 55.6194 101.549 55.6194C104.591 55.6194 107.632 56.7639 109.533 59.0528C104.21 62.4862 101.169 67.8269 101.169 73.5492C101.169 83.4678 110.674 91.479 122.081 91.479C132.347 91.479 140.711 85.3752 142.613 76.9826C142.739 75.9009 142.993 73.6236 142.993 73.1677V71.2603C141.472 58.6713 127.404 47.9897 107.252 47.9897C79.4962 47.9897 54.0215 67.8269 54.0215 99.8716C54.0215 127.72 71.8918 149.846 102.309 149.846C117.138 149.846 133.868 142.979 146.035 123.905L143.373 120.09ZM122.067 84.3669C128.685 84.3669 134.05 79.5767 134.05 73.6677C134.05 67.7587 128.685 62.9685 122.067 62.9685C115.449 62.9685 110.084 67.7587 110.084 73.6677C110.084 79.5767 115.449 84.3669 122.067 84.3669Z" fill="#0A6CA4"/>
<circle cx="122.069" cy="73.6678" r="5.13562" fill="#0A6CA4"/>
</svg>
